# xmcd
#
# Track frame offsets:
#	150
#	18525
#	26925
#	35250
#	51975
#	62850
#	73500
#	90075
#	107025
#	120750
#
# Disc length: 1849 seconds
#
# Revision: 0
# Processed by: cddbd v1.4PL0 Copyright (c) Steve Scherf et al.
# Submitted via: EasyCDDAExtractor 4.5.2.1
#
DISCID=7b07370a
DTITLE=Maxine Howard - Fallin out over the blues
DYEAR=1988
DGENRE=Blues
TTITLE0=blues people
TTITLE1=christian automobile
TTITLE2=Ginny "Z"
TTITLE3=friends
TTITLE4=hello baby
TTITLE5=boogie woman vs. the boogie man
TTITLE6=something on your mind
TTITLE7=grovin the max
TTITLE8=precious lord
TTITLE9=people get ready
EXTD=
EXTT0=
EXTT1=
EXTT2=
EXTT3=
EXTT4=
EXTT5=
EXTT6=
EXTT7=
EXTT8=
EXTT9=
PLAYORDER=
